<mxfile host="app.diagrams.net" agent="Mozilla/5.0 (Windows NT 10.0; Win64; x64) AppleWebKit/537.36 (KHTML, like Gecko) Chrome/128.0.0.0 Safari/537.36" version="24.7.16">
  <diagram id="luWl96Kth_MGAuNW5MiK" name="Page-1">
    <mxGraphModel dx="1996" dy="1153" grid="0" gridSize="10" guides="1" tooltips="1" connect="1" arrows="1" fold="1" page="0" pageScale="1" pageWidth="827" pageHeight="1169" math="0" shadow="0">
      <root>
        <mxCell id="0" />
        <mxCell id="1" parent="0" />
        <mxCell id="09ffa9d1MSQuVnLgW4GL-1" value="Contractor" style="swimlane;whiteSpace=wrap;html=1;" vertex="1" parent="1">
          <mxGeometry x="-147" y="-130" width="370" height="540" as="geometry" />
        </mxCell>
        <mxCell id="09ffa9d1MSQuVnLgW4GL-2" style="edgeStyle=none;curved=1;rounded=0;orthogonalLoop=1;jettySize=auto;html=1;fontSize=12;startSize=8;endSize=8;" edge="1" parent="09ffa9d1MSQuVnLgW4GL-1" source="09ffa9d1MSQuVnLgW4GL-3" target="09ffa9d1MSQuVnLgW4GL-7">
          <mxGeometry relative="1" as="geometry" />
        </mxCell>
        <mxCell id="09ffa9d1MSQuVnLgW4GL-3" value="View Request Detailed Bid" style="html=1;align=center;verticalAlign=top;rounded=1;absoluteArcSize=1;arcSize=10;dashed=0;whiteSpace=wrap;" vertex="1" parent="09ffa9d1MSQuVnLgW4GL-1">
          <mxGeometry x="124" y="51" width="140" height="40" as="geometry" />
        </mxCell>
        <mxCell id="09ffa9d1MSQuVnLgW4GL-4" style="edgeStyle=none;curved=1;rounded=0;orthogonalLoop=1;jettySize=auto;html=1;entryX=0.5;entryY=0;entryDx=0;entryDy=0;fontSize=12;startSize=8;endSize=8;" edge="1" parent="09ffa9d1MSQuVnLgW4GL-1">
          <mxGeometry relative="1" as="geometry">
            <mxPoint x="132" y="202" as="targetPoint" />
          </mxGeometry>
        </mxCell>
        <mxCell id="09ffa9d1MSQuVnLgW4GL-5" style="edgeStyle=none;curved=1;rounded=0;orthogonalLoop=1;jettySize=auto;html=1;entryX=0.5;entryY=0;entryDx=0;entryDy=0;fontSize=12;startSize=8;endSize=8;" edge="1" parent="09ffa9d1MSQuVnLgW4GL-1">
          <mxGeometry relative="1" as="geometry">
            <Array as="points">
              <mxPoint x="328" y="155" />
            </Array>
            <mxPoint x="148.94736842105272" y="218.94736842105272" as="sourcePoint" />
          </mxGeometry>
        </mxCell>
        <mxCell id="09ffa9d1MSQuVnLgW4GL-6" value="No" style="edgeLabel;html=1;align=center;verticalAlign=middle;resizable=0;points=[];fontSize=12;" vertex="1" connectable="0" parent="09ffa9d1MSQuVnLgW4GL-5">
          <mxGeometry x="-0.4746" y="24" relative="1" as="geometry">
            <mxPoint as="offset" />
          </mxGeometry>
        </mxCell>
        <mxCell id="09ffa9d1MSQuVnLgW4GL-7" value="Click &#39;Accept Bid&#39;" style="html=1;align=center;verticalAlign=top;rounded=1;absoluteArcSize=1;arcSize=10;dashed=0;whiteSpace=wrap;" vertex="1" parent="09ffa9d1MSQuVnLgW4GL-1">
          <mxGeometry x="124" y="172" width="140" height="40" as="geometry" />
        </mxCell>
        <mxCell id="09ffa9d1MSQuVnLgW4GL-10" value="Update Button To Show Already Bidded" style="html=1;align=center;verticalAlign=top;rounded=1;absoluteArcSize=1;arcSize=10;dashed=0;whiteSpace=wrap;" vertex="1" parent="09ffa9d1MSQuVnLgW4GL-1">
          <mxGeometry x="124" y="257" width="140" height="40" as="geometry" />
        </mxCell>
        <mxCell id="09ffa9d1MSQuVnLgW4GL-11" style="edgeStyle=none;curved=1;rounded=0;orthogonalLoop=1;jettySize=auto;html=1;fontSize=12;startSize=8;endSize=8;exitX=0.5;exitY=1;exitDx=0;exitDy=0;" edge="1" parent="09ffa9d1MSQuVnLgW4GL-1" source="09ffa9d1MSQuVnLgW4GL-7" target="09ffa9d1MSQuVnLgW4GL-10">
          <mxGeometry relative="1" as="geometry">
            <mxPoint x="458" y="173" as="targetPoint" />
          </mxGeometry>
        </mxCell>
        <mxCell id="09ffa9d1MSQuVnLgW4GL-19" style="edgeStyle=none;curved=1;rounded=0;orthogonalLoop=1;jettySize=auto;html=1;entryX=0;entryY=0.5;entryDx=0;entryDy=0;fontSize=12;startSize=8;endSize=8;" edge="1" parent="1" source="09ffa9d1MSQuVnLgW4GL-20" target="09ffa9d1MSQuVnLgW4GL-3">
          <mxGeometry relative="1" as="geometry" />
        </mxCell>
        <mxCell id="09ffa9d1MSQuVnLgW4GL-20" value="" style="ellipse;fillColor=strokeColor;html=1;" vertex="1" parent="1">
          <mxGeometry x="-315" y="-71" width="19" height="19" as="geometry" />
        </mxCell>
        <mxCell id="09ffa9d1MSQuVnLgW4GL-25" value="Property Manager" style="swimlane;whiteSpace=wrap;html=1;" vertex="1" parent="1">
          <mxGeometry x="248" y="-130" width="370" height="540" as="geometry" />
        </mxCell>
        <mxCell id="09ffa9d1MSQuVnLgW4GL-27" value="Update Contractor Bid List" style="html=1;align=center;verticalAlign=top;rounded=1;absoluteArcSize=1;arcSize=10;dashed=0;whiteSpace=wrap;" vertex="1" parent="09ffa9d1MSQuVnLgW4GL-25">
          <mxGeometry x="99" y="257" width="140" height="40" as="geometry" />
        </mxCell>
        <mxCell id="09ffa9d1MSQuVnLgW4GL-28" style="edgeStyle=none;curved=1;rounded=0;orthogonalLoop=1;jettySize=auto;html=1;entryX=0.5;entryY=0;entryDx=0;entryDy=0;fontSize=12;startSize=8;endSize=8;" edge="1" parent="09ffa9d1MSQuVnLgW4GL-25">
          <mxGeometry relative="1" as="geometry">
            <mxPoint x="132" y="202" as="targetPoint" />
          </mxGeometry>
        </mxCell>
        <mxCell id="09ffa9d1MSQuVnLgW4GL-29" style="edgeStyle=none;curved=1;rounded=0;orthogonalLoop=1;jettySize=auto;html=1;entryX=0.5;entryY=0;entryDx=0;entryDy=0;fontSize=12;startSize=8;endSize=8;" edge="1" parent="09ffa9d1MSQuVnLgW4GL-25">
          <mxGeometry relative="1" as="geometry">
            <Array as="points">
              <mxPoint x="328" y="155" />
            </Array>
            <mxPoint x="148.94736842105272" y="218.94736842105272" as="sourcePoint" />
          </mxGeometry>
        </mxCell>
        <mxCell id="09ffa9d1MSQuVnLgW4GL-30" value="No" style="edgeLabel;html=1;align=center;verticalAlign=middle;resizable=0;points=[];fontSize=12;" vertex="1" connectable="0" parent="09ffa9d1MSQuVnLgW4GL-29">
          <mxGeometry x="-0.4746" y="24" relative="1" as="geometry">
            <mxPoint as="offset" />
          </mxGeometry>
        </mxCell>
        <mxCell id="09ffa9d1MSQuVnLgW4GL-33" style="edgeStyle=none;curved=1;rounded=0;orthogonalLoop=1;jettySize=auto;html=1;fontSize=12;startSize=8;endSize=8;exitX=0.5;exitY=1;exitDx=0;exitDy=0;" edge="1" parent="09ffa9d1MSQuVnLgW4GL-25" target="09ffa9d1MSQuVnLgW4GL-32">
          <mxGeometry relative="1" as="geometry">
            <mxPoint x="458" y="173" as="targetPoint" />
            <mxPoint x="194" y="212" as="sourcePoint" />
          </mxGeometry>
        </mxCell>
        <mxCell id="09ffa9d1MSQuVnLgW4GL-34" style="edgeStyle=none;curved=1;rounded=0;orthogonalLoop=1;jettySize=auto;html=1;fontSize=12;startSize=8;endSize=8;" edge="1" parent="1" source="09ffa9d1MSQuVnLgW4GL-10" target="09ffa9d1MSQuVnLgW4GL-27">
          <mxGeometry relative="1" as="geometry" />
        </mxCell>
        <mxCell id="09ffa9d1MSQuVnLgW4GL-36" value="" style="ellipse;html=1;shape=endState;fillColor=strokeColor;rotation=-10;" vertex="1" parent="1">
          <mxGeometry x="652" y="136.5" width="21" height="21" as="geometry" />
        </mxCell>
        <mxCell id="09ffa9d1MSQuVnLgW4GL-37" style="edgeStyle=none;curved=1;rounded=0;orthogonalLoop=1;jettySize=auto;html=1;entryX=0.295;entryY=0.545;entryDx=0;entryDy=0;entryPerimeter=0;fontSize=12;startSize=8;endSize=8;" edge="1" parent="1" source="09ffa9d1MSQuVnLgW4GL-27" target="09ffa9d1MSQuVnLgW4GL-36">
          <mxGeometry relative="1" as="geometry" />
        </mxCell>
      </root>
    </mxGraphModel>
  </diagram>
</mxfile>
